<svg width="119" height="30" viewBox="0 0 119 30" fill="none" xmlns="http://www.w3.org/2000/svg">
<g clip-path="url(#clip0_978_3)">
<path d="M17.1591 7.67045C16.9886 6.23106 16.2973 5.11364 15.0852 4.31818C13.8731 3.52273 12.3864 3.125 10.625 3.125C9.33712 3.125 8.21023 3.33333 7.24432 3.75C6.28788 4.16667 5.53977 4.73958 5 5.46875C4.4697 6.19792 4.20455 7.02652 4.20455 7.95455C4.20455 8.73106 4.3892 9.39867 4.75852 9.95739C5.13731 10.5066 5.62027 10.9659 6.20739 11.3352C6.79451 11.6951 7.41004 11.9934 8.05398 12.2301C8.69792 12.4574 9.28977 12.642 9.82955 12.7841L12.7841 13.5795C13.5417 13.7784 14.3845 14.053 15.3125 14.4034C16.25 14.7538 17.1449 15.232 17.9972 15.8381C18.8589 16.4347 19.5691 17.2017 20.1278 18.1392C20.6866 19.0767 20.9659 20.2273 20.9659 21.5909C20.9659 23.1629 20.554 24.5833 19.7301 25.8523C18.9157 27.1212 17.7225 28.1297 16.1506 28.8778C14.5881 29.6259 12.6894 30 10.4545 30C8.37121 30 6.56724 29.6638 5.04261 28.9915C3.52746 28.3191 2.33428 27.3816 1.46307 26.179C0.601326 24.9763 0.113636 23.5795 0 21.9886H3.63636C3.73106 23.0871 4.10038 23.9962 4.74432 24.7159C5.39773 25.4261 6.22159 25.9564 7.21591 26.3068C8.2197 26.6477 9.29924 26.8182 10.4545 26.8182C11.7992 26.8182 13.0066 26.6004 14.0767 26.1648C15.1468 25.7197 15.9943 25.1042 16.6193 24.3182C17.2443 23.5227 17.5568 22.5947 17.5568 21.5341C17.5568 20.5682 17.2869 19.7822 16.7472 19.1761C16.2074 18.5701 15.4972 18.0777 14.6165 17.6989C13.7358 17.3201 12.7841 16.9886 11.7614 16.7045L8.18182 15.6818C5.90909 15.0284 4.10985 14.0956 2.78409 12.8835C1.45833 11.6714 0.795455 10.0852 0.795455 8.125C0.795455 6.49621 1.2358 5.07576 2.11648 3.86364C3.00663 2.64205 4.19981 1.69508 5.69602 1.02273C7.2017 0.340909 8.88258 0 10.7386 0C12.6136 0 14.2803 0.336174 15.7386 1.00852C17.197 1.6714 18.3523 2.58049 19.2045 3.7358C20.0663 4.8911 20.5208 6.20265 20.5682 7.67045H17.1591Z" fill="black"/>
<path d="M30.2805 0.397727V29.4886H26.7578V0.397727H30.2805Z" fill="black"/>
<path d="M35.7528 3.52273V0.397727H57.571V3.52273H48.4233V29.4886H44.9006V3.52273H35.7528Z" fill="black"/>
<path d="M63.0078 29.4886V0.397727H80.5646V3.52273H66.5305V13.3523H79.6555V16.4773H66.5305V26.3636H80.7919V29.4886H63.0078Z" fill="black"/>
<path d="M98.1641 29.4886V0.397727H108.335C110.361 0.397727 112.032 0.748107 113.349 1.44886C114.665 2.14015 115.645 3.07292 116.289 4.24716C116.933 5.41193 117.255 6.70455 117.255 8.125C117.255 9.375 117.032 10.4072 116.587 11.2216C116.152 12.036 115.574 12.6799 114.854 13.1534C114.144 13.6269 113.372 13.9773 112.539 14.2045V14.4886C113.429 14.5455 114.324 14.858 115.224 15.4261C116.123 15.9943 116.876 16.8087 117.482 17.8693C118.088 18.9299 118.391 20.2273 118.391 21.7614C118.391 23.2197 118.06 24.5313 117.397 25.696C116.734 26.8608 115.688 27.7841 114.258 28.4659C112.828 29.1477 110.967 29.4886 108.675 29.4886H98.1641ZM101.687 26.3636H108.675C110.977 26.3636 112.61 25.9186 113.576 25.0284C114.551 24.1288 115.039 23.0398 115.039 21.7614C115.039 20.7765 114.788 19.8674 114.286 19.0341C113.784 18.1913 113.069 17.5189 112.141 17.017C111.213 16.5057 110.115 16.25 108.846 16.25H101.687V26.3636ZM101.687 13.1818H108.221C109.281 13.1818 110.238 12.9735 111.09 12.5568C111.952 12.1402 112.634 11.553 113.136 10.7955C113.647 10.0379 113.903 9.14773 113.903 8.125C113.903 6.84659 113.458 5.76231 112.567 4.87216C111.677 3.97254 110.266 3.52273 108.335 3.52273H101.687V13.1818Z" fill="black"/>
</g>
<defs>
<clipPath id="clip0_978_3">
<rect width="119" height="30" fill="white"/>
</clipPath>
</defs>
</svg>
